<svg id="Capa_1" data-name="Capa 1" xmlns="http://www.w3.org/2000/svg" viewBox="0 0 922 799.89"><defs><style>.cls-1{fill:#3fa9f5;}.cls-2{fill:#333;stroke:#333;}.cls-2,.cls-3{stroke-miterlimit:10;stroke-width:20px;}.cls-3{fill:#fff;stroke:#fff;}</style></defs><title>logo G</title><rect class="cls-1" y="218.89" width="922" height="581" rx="148.67"/><path class="cls-2" d="M580.84,208.15c51.24,0,83.84,17.24,109.46,40.69L726,213c-29.5-28.27-76.08-55.86-146.72-55.86-130.46,0-226.87,83-233.32,219.75h67.51C418.48,272.31,482.49,208.15,580.84,208.15Z" transform="translate(-72 -147.11)"/><path class="cls-3" d="M565.31,428.81H673.22V546.75C653,563.3,618.1,573,581.62,573c-108.69,0-168.47-71-168.47-184.84,0-4.53.12-9,.33-13.37H346c-.23,4.85-.36,9.76-.36,14.75C345.61,537.1,441.1,624,575.4,624c68.32,0,124.22-22.07,157.6-52.42V381.22H565.31Z" transform="translate(-72 -147.11)"/><polygon class="cls-3" points="467.5 749.89 387 677.32 417.75 559.89 517.25 559.89 548 677.32 467.5 749.89"/></svg>